<?xml version="1.0" encoding="iso-8859-1"?>
<!-- Generator: Adobe Illustrator 19.0.0, SVG Export Plug-In . SVG Version: 6.00 Build 0)  -->
<svg version="1.1" id="Capa_1" xmlns="http://www.w3.org/2000/svg" xmlns:xlink="http://www.w3.org/1999/xlink" x="0px" y="0px"
	 viewBox="0 0 460.782 460.782" style="enable-background:new 0 0 460.782 460.782;" xml:space="preserve">
<path style="fill:#083863;" d="M380.098,70.009C340.883,26.801,285.69,1.529,227.359,0.074C225.607,0.024,223.783,0,221.783,0
	s-3.824,0.024-5.544,0.074C98.095,3.135,4.802,101.391,7.862,219.534c1.322,51.045,20.854,99.935,55.068,137.84
	c39.235,43.567,94.666,69.075,153.278,70.534c1.757,0.05,3.58,0.074,5.574,0.074s3.818-0.024,5.531-0.073
	c24.006-0.581,47.74-5.218,70.2-13.714c5.166-1.955,7.769-7.726,5.814-12.892s-7.726-7.769-12.892-5.814
	c-6.586,2.49-13.303,4.618-20.122,6.372c12.746-10.72,24.06-23.034,33.665-36.64l-16.253-11.577
	c-15.183,21.386-33.833,38.351-55.833,50.563v-109.9c20.709,0.997,41.118,5.356,60.427,12.907l0.32,0.129
	c-0.081-0.03-0.174-0.063-0.255-0.1l7.9-18.374c-0.284-0.122-0.515-0.23-0.8-0.335c-21.609-8.384-44.438-13.199-67.592-14.257
	V224.43h96.129c-0.165,5-0.437,9.651-0.843,14.456l19.928,1.8c0.454-5.358,0.752-11.254,0.924-16.254h67.47
	c-0.224,4-0.58,8.623-1.1,12.992c-0.64,5.43,3.243,10.351,8.673,10.991c0.026,0.003,0.053,0.006,0.079,0.009
	c5.498,0.628,10.467-3.311,11.109-8.807c1.004-8.495,1.508-17.041,1.509-25.595C435.822,160.755,415.965,109.391,380.098,70.009
	L380.098,70.009z M211.893,404.203c-34-19.082-60.783-49.8-77.409-89.664c24.141-11.982,50.492-18.861,77.409-20.209V404.203z
	 M70.774,335.973c-25.701-31.714-40.659-70.774-42.716-111.543h67.475c0.884,28,5.6,55.96,14.07,81.265
	C95.512,314.223,82.479,324.386,70.774,335.973L70.774,335.973z M70.774,92.445c11.699,11.657,24.731,21.894,38.827,30.5
	c-8.657,26.326-13.397,53.781-14.068,81.485H28.058c2.053-40.903,17.007-80.106,42.718-111.985H70.774z M211.893,23.778v109.875
	c-26.917-1.349-53.267-8.229-77.408-20.212C151.11,73.575,177.893,42.86,211.893,23.778L211.893,23.778z M127.509,132.547
	c26.422,12.642,55.122,19.827,84.384,21.126v50.757H115.54C116.16,180.028,120.189,155.833,127.509,132.547z M231.893,23.778
	c34,19.046,60.682,49.68,77.312,89.426c-24.065,12.127-50.398,19.091-77.312,20.446V23.778z M372.344,91.888
	c26.101,31.905,41.236,71.366,43.164,112.542h-67.475c-0.687-27.832-5.469-55.412-14.192-81.851
	C347.825,113.882,360.747,103.582,372.344,91.888z M358.931,76.788c-9.792,9.955-20.646,18.806-32.367,26.394
	c-13.4-31.135-32.439-57.162-56.231-77.071c33.533,8.667,64.129,26.167,88.6,50.677L358.931,76.788z M139.52,38.25
	c10.834-5.083,22.118-9.145,33.706-12.132c-23.886,19.988-42.975,46.142-56.385,77.446C105,96.046,94.031,87.237,84.134,77.299
	C100.15,61.121,118.901,47.901,139.52,38.25L139.52,38.25z M84.133,350.68c9.897-9.938,20.867-18.747,32.708-26.264
	c13.411,31.3,32.5,57.459,56.388,77.447c-33.768-8.723-64.553-26.407-89.1-51.183H84.133z M211.893,274.308
	c-29.29,1.451-57.989,8.785-84.384,21.565c-7.238-23.155-11.265-47.193-11.969-71.443h96.353V274.308z M231.893,153.671
	c29.229-1.306,57.882-8.573,84.2-21.357c7.144,22.394,11.1,46.116,11.932,72.116h-96.132L231.893,153.671z"/>
<path style="fill:#00EFD1;" d="M452.993,373.39v57.34c0,11.52-17.9,21.52-44.18,26.57c-12.816,2.369-25.827,3.534-38.86,3.48
	c-45.88,0-83.05-13.45-83.05-30.05v-57.34c0,16.61,37.17,30.05,83.05,30.05S452.993,390,452.993,373.39L452.993,373.39z"/>
<path style="fill:#00CEB4;" d="M452.993,372.2v1.19c0,16.61-37.17,30.05-83.04,30.05s-83.05-13.44-83.05-30.05v-56.95
	c0,16.61,37.17,30.06,83.05,30.06s83.04-13.45,83.04-30.06V372.2z"/>
<path style="fill:#00EFD1;" d="M286.903,291.9v-32.4c0,16.6,37.18,30.05,83.05,30.05s83.04-13.45,83.04-30.05v56.94
	c0,16.61-37.17,30.06-83.04,30.06s-83.05-13.45-83.05-30.06V291.9z"/>
<path style="fill:#00ACEA;" d="M414.893,234.22c22.92,5.35,38.1,14.67,38.1,25.28c0,16.6-37.18,30.05-83.04,30.05
	s-83.05-13.45-83.05-30.05c0-11.08,16.57-20.77,41.24-25.97c13.759-2.795,27.77-4.165,41.81-4.09
	C385.064,229.341,400.139,230.944,414.893,234.22z"/>
<g>
	<path style="fill:#D4E1F4;" d="M383.893,327.39h-29c-5.523,0-10-4.477-10-10s4.477-10,10-10h29c5.523,0,10,4.477,10,10
		S389.415,327.39,383.893,327.39z"/>
	<path style="fill:#D4E1F4;" d="M383.893,385.39h-29c-5.523,0-10-4.477-10-10s4.477-10,10-10h29c5.523,0,10,4.477,10,10
		S389.415,385.39,383.893,385.39z"/>
	<path style="fill:#D4E1F4;" d="M383.893,443.39h-29c-5.523,0-10-4.477-10-10s4.477-10,10-10h29c5.523,0,10,4.477,10,10
		S389.415,443.39,383.893,443.39z"/>
</g>
<g>
</g>
<g>
</g>
<g>
</g>
<g>
</g>
<g>
</g>
<g>
</g>
<g>
</g>
<g>
</g>
<g>
</g>
<g>
</g>
<g>
</g>
<g>
</g>
<g>
</g>
<g>
</g>
<g>
</g>
</svg>
