<svg xmlns="http://www.w3.org/2000/svg" xmlns:xlink="http://www.w3.org/1999/xlink" xmlns:fi="http://pattern.flaticon.com/" x="0" y="0" width="100%" height="100%" viewBox="0 0 700 350"><rect x="0px" y="0px" width="100%" height="100%" opacity="0" fill="#ffffff"/><defs><g transform="matrix(0.016605255173802413 0.1273068909843528 -0.1273068909843528 0.016605255173802413 259.22573321191925 203.17191191891496)" id="L1_160"><path d="M84.516,343.25c-3.023,0-5.922-1.719-7.273-4.648c-1.852-4.008-0.102-8.766,3.914-10.617     l106.352-49.086c4.023-1.852,8.766-0.094,10.617,3.914s0.102,8.766-3.914,10.617L87.859,342.516     C86.773,343.016,85.633,343.25,84.516,343.25z" fill="#5c546a"/><path d="M205.305,213.086c-2.047,0-4.094-0.781-5.656-2.344l-70.461-70.461     c-3.125-3.125-3.125-8.188,0-11.313s8.188-3.125,11.312,0l70.461,70.461c3.125,3.125,3.125,8.187,0,11.312     C209.398,212.305,207.351,213.086,205.305,213.086z" fill="#5c546a"/><path d="M307.133,213.086c-2.047,0-4.094-0.781-5.656-2.344c-3.125-3.125-3.125-8.188,0-11.312     L402.969,97.945c3.125-3.125,8.188-3.125,11.313,0s3.125,8.187,0,11.312L312.789,210.742     C311.226,212.305,309.18,213.086,307.133,213.086z" fill="#5c546a"/><path d="M449.594,457.375c-2.047,0-4.094-0.781-5.656-2.344L301.469,312.562     c-3.125-3.125-3.125-8.187,0-11.312s8.188-3.125,11.312,0L455.25,443.719c3.125,3.125,3.125,8.188,0,11.313     C453.687,456.594,451.64,457.375,449.594,457.375z" fill="#5c546a"/><path d="M269.305,408c-4.094,0-7.578-3.125-7.961-7.273l-6.578-72.305     c-0.398-4.398,2.844-8.297,7.242-8.695c4.477-0.383,8.289,2.852,8.695,7.242l6.578,72.305c0.398,4.398-2.844,8.297-7.242,8.695     C269.789,407.992,269.547,408,269.305,408z" fill="#5c546a"/><circle cx="256" cy="256" r="80" fill="#ff4f19"/><circle cx="276" cy="236" r="28" fill="#ff8c62"/><circle cx="47" cy="351" r="47" fill="#ff9100"/><circle cx="59" cy="339" r="16" fill="#ffcd00"/><circle cx="448" cy="63" r="63" fill="#ffcd00"/><circle cx="463" cy="47" r="22" fill="#ffe671"/><circle cx="111" cy="112" r="39" fill="#00c37a"/><circle cx="121" cy="102" r="13" fill="#60dc4d"/><circle cx="471" cy="472" r="39" fill="#4cd7ff"/><circle cx="481" cy="462" r="13" fill="#aeefff"/><circle cx="272" cy="432" r="39" fill="#868491"/><circle cx="281" cy="422" r="13" fill="#b4b6bc"/></g><g transform="matrix(0.1171877309679985 0 0 0.1171877309679985 63 233)"><path d="M84.516,343.25c-3.023,0-5.922-1.719-7.273-4.648c-1.852-4.008-0.102-8.766,3.914-10.617     l106.352-49.086c4.023-1.852,8.766-0.094,10.617,3.914s0.102,8.766-3.914,10.617L87.859,342.516     C86.773,343.016,85.633,343.25,84.516,343.25z" fill="#5c546a"/><path d="M205.305,213.086c-2.047,0-4.094-0.781-5.656-2.344l-70.461-70.461     c-3.125-3.125-3.125-8.188,0-11.313s8.188-3.125,11.312,0l70.461,70.461c3.125,3.125,3.125,8.187,0,11.312     C209.398,212.305,207.351,213.086,205.305,213.086z" fill="#5c546a"/><path d="M307.133,213.086c-2.047,0-4.094-0.781-5.656-2.344c-3.125-3.125-3.125-8.188,0-11.312     L402.969,97.945c3.125-3.125,8.188-3.125,11.313,0s3.125,8.187,0,11.312L312.789,210.742     C311.226,212.305,309.18,213.086,307.133,213.086z" fill="#5c546a"/><path d="M449.594,457.375c-2.047,0-4.094-0.781-5.656-2.344L301.469,312.562     c-3.125-3.125-3.125-8.187,0-11.312s8.188-3.125,11.312,0L455.25,443.719c3.125,3.125,3.125,8.188,0,11.313     C453.687,456.594,451.64,457.375,449.594,457.375z" fill="#5c546a"/><path d="M269.305,408c-4.094,0-7.578-3.125-7.961-7.273l-6.578-72.305     c-0.398-4.398,2.844-8.297,7.242-8.695c4.477-0.383,8.289,2.852,8.695,7.242l6.578,72.305c0.398,4.398-2.844,8.297-7.242,8.695     C269.789,407.992,269.547,408,269.305,408z" fill="#5c546a"/><circle cx="256" cy="256" r="80" fill="#ff4f19"/><circle cx="276" cy="236" r="28" fill="#ff8c62"/><circle cx="47" cy="351" r="47" fill="#ff9100"/><circle cx="59" cy="339" r="16" fill="#ffcd00"/><circle cx="448" cy="63" r="63" fill="#ffcd00"/><circle cx="463" cy="47" r="22" fill="#ffe671"/><circle cx="111" cy="112" r="39" fill="#00c37a"/><circle cx="121" cy="102" r="13" fill="#60dc4d"/><circle cx="471" cy="472" r="39" fill="#4cd7ff"/><circle cx="481" cy="462" r="13" fill="#aeefff"/><circle cx="272" cy="432" r="39" fill="#868491"/><circle cx="281" cy="422" r="13" fill="#b4b6bc"/></g><g transform="matrix(-0.38310844816453665 0.05380731897727904 -0.05380731897727904 -0.38310844816453665 172.57344376705754 196.07790376966796)"><path d="M84.516,343.25c-3.023,0-5.922-1.719-7.273-4.648c-1.852-4.008-0.102-8.766,3.914-10.617     l106.352-49.086c4.023-1.852,8.766-0.094,10.617,3.914s0.102,8.766-3.914,10.617L87.859,342.516     C86.773,343.016,85.633,343.25,84.516,343.25z" fill="#5c546a"/><path d="M205.305,213.086c-2.047,0-4.094-0.781-5.656-2.344l-70.461-70.461     c-3.125-3.125-3.125-8.188,0-11.313s8.188-3.125,11.312,0l70.461,70.461c3.125,3.125,3.125,8.187,0,11.312     C209.398,212.305,207.351,213.086,205.305,213.086z" fill="#5c546a"/><path d="M307.133,213.086c-2.047,0-4.094-0.781-5.656-2.344c-3.125-3.125-3.125-8.188,0-11.312     L402.969,97.945c3.125-3.125,8.188-3.125,11.313,0s3.125,8.187,0,11.312L312.789,210.742     C311.226,212.305,309.18,213.086,307.133,213.086z" fill="#5c546a"/><path d="M449.594,457.375c-2.047,0-4.094-0.781-5.656-2.344L301.469,312.562     c-3.125-3.125-3.125-8.187,0-11.312s8.188-3.125,11.312,0L455.25,443.719c3.125,3.125,3.125,8.188,0,11.313     C453.687,456.594,451.64,457.375,449.594,457.375z" fill="#5c546a"/><path d="M269.305,408c-4.094,0-7.578-3.125-7.961-7.273l-6.578-72.305     c-0.398-4.398,2.844-8.297,7.242-8.695c4.477-0.383,8.289,2.852,8.695,7.242l6.578,72.305c0.398,4.398-2.844,8.297-7.242,8.695     C269.789,407.992,269.547,408,269.305,408z" fill="#5c546a"/><circle cx="256" cy="256" r="80" fill="#ff4f19"/><circle cx="276" cy="236" r="28" fill="#ff8c62"/><circle cx="47" cy="351" r="47" fill="#ff9100"/><circle cx="59" cy="339" r="16" fill="#af51bf"/><circle cx="448" cy="63" r="63" fill="#af51bf"/><circle cx="463" cy="47" r="22" fill="#ffe671"/><circle cx="111" cy="112" r="39" fill="#00c37a"/><circle cx="121" cy="102" r="13" fill="#60dc4d"/><circle cx="471" cy="472" r="39" fill="#4cd7ff"/><circle cx="481" cy="462" r="13" fill="#aeefff"/><circle cx="272" cy="432" r="39" fill="#868491"/><circle cx="281" cy="422" r="13" fill="#b4b6bc"/></g><g transform="matrix(0.1171875 0 0 0.1171875 199 110)" id="L1_162"><path d="M377.078,458.898c-17.828,0-37.922-3.766-59.703-11.344     c-50.266-17.484-104.203-53.367-151.883-101.047S81.93,244.891,64.445,194.625C46.289,142.422,50.031,99.937,74.984,74.984     c24.945-24.945,67.43-28.703,119.641-10.539c50.266,17.484,104.203,53.367,151.883,101.047s83.562,101.617,101.047,151.883     c18.156,52.203,14.414,94.687-10.539,119.641l0,0l0,0C422.476,451.555,401.984,458.898,377.078,458.898z M134.906,69.055     c-20.539,0-37.141,5.773-48.609,17.242c-20.383,20.375-22.773,56.984-6.742,103.07c16.711,48.031,51.242,99.82,97.25,145.828     s97.797,80.539,145.828,97.25c46.094,16.023,82.687,13.633,103.07-6.742l0,0c20.383-20.375,22.773-56.984,6.742-103.07     c-16.711-48.031-51.242-99.82-97.25-145.828s-97.797-80.539-145.828-97.25C169.211,72.547,150.867,69.055,134.906,69.055z" fill="#ffcd00"/><path d="M134.922,458.898c-24.906,0-45.398-7.344-59.937-21.883     c-24.953-24.953-28.695-67.437-10.539-119.641c17.484-50.266,53.367-104.203,101.047-151.883S267.109,81.93,317.375,64.445     c52.211-18.164,94.695-14.406,119.641,10.539l0,0l0,0c24.953,24.953,28.695,67.437,10.539,119.641     c-17.484,50.266-53.367,104.203-101.047,151.883S244.891,430.07,194.625,447.555C172.844,455.133,152.75,458.898,134.922,458.898     z M377.094,69.055c-15.969,0-34.305,3.492-54.461,10.5c-48.031,16.711-99.82,51.242-145.828,97.25s-80.539,97.797-97.25,145.828     c-16.031,46.086-13.641,82.695,6.742,103.07c20.375,20.391,56.992,22.766,103.07,6.742c48.031-16.711,99.82-51.242,145.828-97.25     s80.539-97.797,97.25-145.828c16.031-46.086,13.641-82.695-6.742-103.07l0,0C414.234,74.828,397.633,69.055,377.094,69.055z" fill="#ff9100"/><path d="M256,512c-71.773,0-128-112.445-128-256S184.227,0,256,0s128,112.445,128,256S327.773,512,256,512     z M256,16c-60.711,0-112,109.906-112,240s51.289,240,112,240s112-109.906,112-240S316.711,16,256,16z" fill="#ff4f19"/><circle cx="255" cy="256" r="55" fill="#ff4f19"/><circle cx="269" cy="242" r="19" fill="#ff8c62"/><path d="M256,384C112.445,384,0,327.773,0,256s112.445-128,256-128s256,56.227,256,128     S399.555,384,256,384z M256,144c-130.094,0-240,51.289-240,112s109.906,112,240,112s240-51.289,240-112S386.094,144,256,144z" fill="#e3001e"/></g></defs><g fi:class="KUsePattern" opacity="0.07"><pattern id="pattern_L1_160" width="350" height="350" patternUnits="userSpaceOnUse"><use xlink:href="#L1_160" x="-350" y="-350"/><use xlink:href="#L1_160" x="0" y="-350"/><use xlink:href="#L1_160" x="350" y="-350"/><use xlink:href="#L1_160" x="-350" y="0"/><use xlink:href="#L1_160" x="0" y="0"/><use xlink:href="#L1_160" x="350" y="0"/><use xlink:href="#L1_160" x="-350" y="350"/><use xlink:href="#L1_160" x="0" y="350"/><use xlink:href="#L1_160" x="350" y="350"/></pattern><rect x="0" y="0" width="100%" height="100%" fill="url(#pattern_L1_160)"/></g><g fi:class="KUsePattern" transform="matrix(1 0 0 1 20 20)" opacity="0.66"><pattern id="pattern_UNKNOWN" width="350" height="350" patternUnits="userSpaceOnUse"><use xlink:href="#UNKNOWN" x="-350" y="-350"/><use xlink:href="#UNKNOWN" x="0" y="-350"/><use xlink:href="#UNKNOWN" x="350" y="-350"/><use xlink:href="#UNKNOWN" x="-350" y="0"/><use xlink:href="#UNKNOWN" x="0" y="0"/><use xlink:href="#UNKNOWN" x="350" y="0"/><use xlink:href="#UNKNOWN" x="-350" y="350"/><use xlink:href="#UNKNOWN" x="0" y="350"/><use xlink:href="#UNKNOWN" x="350" y="350"/></pattern><rect x="0" y="0" width="100%" height="100%" fill="url(#pattern_UNKNOWN)"/></g><g fi:class="KUsePattern" transform="matrix(1 0 0 1 20 20)" opacity="0.28"><pattern id="pattern_UNKNOWN" width="350" height="350" patternUnits="userSpaceOnUse"><use xlink:href="#UNKNOWN" x="-350" y="-350"/><use xlink:href="#UNKNOWN" x="0" y="-350"/><use xlink:href="#UNKNOWN" x="350" y="-350"/><use xlink:href="#UNKNOWN" x="-350" y="0"/><use xlink:href="#UNKNOWN" x="0" y="0"/><use xlink:href="#UNKNOWN" x="350" y="0"/><use xlink:href="#UNKNOWN" x="-350" y="350"/><use xlink:href="#UNKNOWN" x="0" y="350"/><use xlink:href="#UNKNOWN" x="350" y="350"/></pattern><rect x="0" y="0" width="100%" height="100%" fill="url(#pattern_UNKNOWN)"/></g><g fi:class="KUsePattern" opacity="0.09"><pattern id="pattern_L1_162" width="350" height="350" patternUnits="userSpaceOnUse"><use xlink:href="#L1_162" x="-350" y="-350"/><use xlink:href="#L1_162" x="0" y="-350"/><use xlink:href="#L1_162" x="350" y="-350"/><use xlink:href="#L1_162" x="-350" y="0"/><use xlink:href="#L1_162" x="0" y="0"/><use xlink:href="#L1_162" x="350" y="0"/><use xlink:href="#L1_162" x="-350" y="350"/><use xlink:href="#L1_162" x="0" y="350"/><use xlink:href="#L1_162" x="350" y="350"/></pattern><rect x="0" y="0" width="100%" height="100%" fill="url(#pattern_L1_162)"/></g></svg>
